<?xml version="1.0" encoding="utf-8"?>
<!-- Generator: Adobe Illustrator 27.0.1, SVG Export Plug-In . SVG Version: 6.00 Build 0)  -->
<svg version="1.1" id="Capa_1" xmlns="http://www.w3.org/2000/svg" xmlns:xlink="http://www.w3.org/1999/xlink" x="0px" y="0px"
	 viewBox="0 0 142.4 28.1" style="enable-background:new 0 0 142.4 28.1;" xml:space="preserve">
<style type="text/css">
	.st0{fill:#FFFFFF;}
</style>
<g>
	<g>
		<g>
			<path class="st0" d="M20.3,3.9c0.8,1.1,1.2,2.4,1.2,4c0,1.6-0.4,2.9-1.2,3.9c-0.5,0.5-1.1,1-2,1.5c1.3,0.5,2.3,1.3,3,2.3
				c0.7,1.1,1,2.3,1,3.8c0,1.6-0.4,2.9-1.2,4.2c-0.5,0.8-1.1,1.5-1.9,2.1c-0.8,0.6-1.8,1.1-3,1.3c-1.1,0.2-2.4,0.4-3.7,0.3l-11.8,0
				L0.9,1l12.7,0C16.8,1.1,19,2.1,20.3,3.9z M6.1,5.6l0,5.8l6.4,0c1.1,0,2.1-0.2,2.8-0.6c0.7-0.4,1.1-1.2,1.1-2.3
				c0-1.2-0.5-2-1.4-2.4c-0.8-0.3-1.8-0.4-3.1-0.4L6.1,5.6z M6.1,15.7l0,7l6.4,0c1.1,0,2-0.1,2.7-0.5c1.1-0.6,1.7-1.7,1.7-3.3
				c0-1.4-0.6-2.3-1.7-2.8c-0.6-0.3-1.5-0.4-2.6-0.4L6.1,15.7z"/>
		</g>
		<g>
			<path class="st0" d="M32.1,1.1l6.2,0l9.2,26.2l-5.9,0l-1.7-5.4l-9.6,0l-1.8,5.4l-5.7,0L32.1,1.1z M31.7,17.4l6.7,0L35.1,7.1
				L31.7,17.4z"/>
		</g>
		<g>
			<path class="st0" d="M49.7,1.1l5.5,0l0,21.5l13.1,0l0,4.7l-18.5,0L49.7,1.1z"/>
		</g>
		<g>
			<path class="st0" d="M79.1,1.2l6.2,0l9.2,26.2l-5.9,0L86.8,22l-9.6,0l-1.8,5.4l-5.7,0L79.1,1.2z M78.7,17.5l6.7,0L82.1,7.2
				L78.7,17.5z"/>
		</g>
		<g>
			<path class="st0" d="M97.4,1.2l5.7,0l10.4,18.3l0-18.3l5.1,0l0,26.2l-5.5,0L102.5,8.8l0,18.6l-5.1,0L97.4,1.2z"/>
		</g>
		<g>
			<path class="st0" d="M121.5,22.8l13.4-16.9l-13,0l0-4.6l19.8,0l0,4.4l-13.6,17.2l13.6,0l0,4.6l-20.2,0L121.5,22.8z"/>
		</g>
	</g>
</g>
</svg>
